/* XPM */
static char *skAlias[] = {
/* columns rows colors chars-per-pixel */
"16 15 73 1 ",
"  c #5E1F86",
". c #631F8F",
"X c #651F91",
"o c #6B1F9C",
"O c #64208F",
"+ c #662292",
"@ c #71299E",
"# c #711FA5",
"$ c #731FA8",
"% c #771FB0",
"& c #791FB2",
"* c #7E1FBB",
"= c #744593",
"- c #78409C",
"; c #7C40A3",
": c #801FBE",
"> c #8225BE",
", c #8237B1",
"< c #8140AA",
"1 c #8540B2",
"2 c #8840B5",
"3 c #8C40BD",
"4 c #8960A2",
"5 c #851FC6",
"6 c #871FC9",
"7 c #8D1FD2",
"8 c #931FDD",
"9 c #8D2BCB",
"0 c #9420DD",
"q c #991FE7",
"w c #9B1FEA",
"e c #A11FF3",
"r c #9D24E9",
"t c #9140C4",
"y c #9540CB",
"u c #9C5BC5",
"i c #9B40D4",
"p c #9F40DB",
"a c #A148DA",
"s c #A85ED7",
"d c #A779C4",
"f c #AD6ED5",
"g c #A340E2",
"h c #A940EC",
"j c #B05BE7",
"k c #AD40F3",
"l c #B040F7",
"z c #B545FC",
"x c #BD63F6",
"c c #C160FE",
"v c #AC82C7",
"b c #BD8BDC",
"n c #C29ED8",
"m c #CBACDE",
"M c #C797E5",
"N c #D49EF6",
"B c #D4ABEF",
"V c #D9BFE9",
"C c #D7A5F7",
"Z c #E4DAEB",
"A c #E4CAF4",
"S c #E8D4F5",
"D c #E7D8F1",
"F c #E9D8F4",
"G c #EDD8FB",
"H c #F1DBFF",
"J c #E8E0EC",
"K c #EDE1F4",
"L c #F4EEF7",
"P c #F3E0FF",
"I c #F4ECFA",
"U c #F9F5FB",
"Y c #FDFBFE",
/* pixels */
"YPHHHHHHHHHHHHPY",
"HczzzzzzzzzzzzxH",
"GleeeeeeeeeeeekG",
"GhwwwwrNCxqqqqhG",
"Gg8888jYYS0888gG",
"Gp7777BYAYa777iF",
"Fi6669ISsYM555yF",
"Fy:::fYb>IK>**tF",
"D3&&&VYKDUYu%%3D",
"D2$$,UKnnmYm##1Z",
"Z<oodLvoo@ZK@o<Z",
"Z;XX+++XXX++O.-Z",
"Z-            =Z",
"Z4============4Z",
"UJZZZZZZZZZZZZJU"
};
