/* XPM */
static char *skConst[] = {
/* columns rows colors chars-per-pixel */
"16 15 75 1 ",
"  c #1F6286",
". c #1F688F",
"X c #1F6991",
"o c #1F6F9A",
"O c #1F719D",
"+ c #256C93",
"@ c #2D7297",
"# c #1F76A5",
"$ c #1F78A8",
"% c #1F7EB1",
"& c #217FB1",
"* c #457792",
"= c #447894",
"- c #407C9C",
"; c #1F80B3",
": c #1F85BC",
"> c #3A88B2",
", c #4080A3",
"< c #4085AA",
"1 c #478AAD",
"2 c #408BB3",
"3 c #4091BD",
"4 c #608BA2",
"5 c #6FA2BE",
"6 c #1F8CC7",
"7 c #1F8EC9",
"8 c #1F94D2",
"9 c #1F9BDD",
"0 c #2295D3",
"q c #349DD5",
"w c #1FA1E7",
"e c #1FA3EA",
"r c #1FA9F3",
"t c #29A0E0",
"y c #29A7EA",
"u c #4096C4",
"i c #409ACB",
"p c #409FD1",
"a c #5CA7CF",
"s c #40A2D7",
"d c #40A5DB",
"f c #72AAC8",
"g c #64B0D9",
"h c #40AAE2",
"j c #40AEEA",
"k c #40B1ED",
"l c #4DB5ED",
"z c #40B6F5",
"x c #45BCFC",
"c c #60C6FD",
"v c #8DBAD2",
"b c #97C1D7",
"n c #95C3DB",
"m c #9BC5DB",
"M c #80C3E7",
"N c #84CDF4",
"B c #9CD3F0",
"V c #BADBED",
"C c #ACDBF4",
"Z c #BADEF1",
"A c #BFE5FA",
"S c #C0D6E2",
"D c #DAE5EA",
"F c #DFE8ED",
"G c #CBE9FA",
"H c #D8EAF3",
"J c #D3EBF8",
"K c #D8EEFA",
"L c #DBF2FF",
"P c #E0E8EC",
"I c #E3EDF2",
"U c #ECF3F7",
"Y c #E0F4FF",
"T c #F3F7F9",
"R c #FBFDFE",
/* pixels */
"RYLLLLLLLLLLLLYR",
"LcxxxxxxxxxxxxcL",
"LzrrrrrrrrrrrrzL",
"KkeeeyNAGClwwwjK",
"Kh99tGRJCJB999hK",
"Kd88MRZ080q888sK",
"Hp77VRg6666666iH",
"Hi::VRa:::::::uH",
"H3;%nRm%%%&%%%3H",
"H2$$>URmfbv###2D",
"D<OOO1STRI5ooo<D",
"D,XXXXX+@+X...-D",
"D-            =D",
"F4=====*******4F",
"RPDDDDDDDDDDDDPR"
};
