/* XPM */
static char *skConverter[] = {
/* columns rows colors chars-per-pixel */
"16 15 76 1 ",
"  c #1F651F",
". c #1F6D1F",
"X c #1F731F",
"o c #1F7A1F",
"O c #206E20",
"+ c #207620",
"@ c #2A742A",
"# c #287C28",
"$ c #447A44",
"% c #1F831F",
"& c #1F8A1F",
"* c #1F921F",
"= c #1F991F",
"- c #1FA21F",
"; c #1FAD1F",
": c #1FB01F",
"> c #218421",
", c #258F25",
"< c #249B24",
"1 c #2A982A",
"2 c #369D36",
"3 c #3F943F",
"4 c #2EA02E",
"5 c #2EAE2E",
"6 c #22B022",
"7 c #31AF31",
"8 c #3BAC3B",
"9 c #3EB53E",
"0 c #418441",
"q c #408B40",
"w c #498149",
"e c #409440",
"r c #409A40",
"t c #508650",
"y c #589D58",
"u c #42A542",
"i c #40AC40",
"p c #49A149",
"a c #40B340",
"s c #40BB40",
"d c #4BB54B",
"f c #57A357",
"g c #5CBA5C",
"h c #608D60",
"j c #6DA76D",
"k c #75A575",
"l c #76B076",
"z c #45C245",
"x c #60CB60",
"c c #7CC37C",
"v c #85B985",
"b c #8EC48E",
"n c #88CD88",
"m c #8BD18B",
"M c #97C597",
"N c #96D796",
"B c #9CDA9C",
"V c #A6C8A6",
"C c #A0D0A0",
"Z c #B0D1B0",
"A c #B2DEB2",
"S c #BCD7BC",
"D c #C2E4C2",
"F c #C6EAC6",
"G c #CDE8CD",
"H c #D4E4D4",
"J c #D7E9D7",
"K c #DAE5DA",
"L c #D9EBD9",
"P c #DBF3DB",
"I c #E0E9E0",
"U c #E1F4E1",
"Y c #EBF3EB",
"T c #EEF8EE",
"R c #F4F9F4",
"E c #FAFCFA",
/* pixels */
"EUPPPPPPPPPPPPUE",
"PxzzzzzzzzzzzzxP",
"Ps:::::::;;66;sP",
"Pa;9BFFN7;5Pm-aP",
"LadTEDAUg-nE8-iL",
"LiDEc==<4<LG==uL",
"LpRR1****2EC**uL",
"LpRR,&&&&pEb&&rL",
"JeJEf%%%>3EM%%eJ",
"JejEYvlZy#YSooqJ",
"Jq+jJRRHqXVT#X0J",
"K0..O@@O..0Ek.0K",
"K$         tw $K",
"Kh$$$$$$$$$$$$hK",
"EIKKKKKKKKKKKKIE"
};
