/* XPM */
static char *skConditional[] = {
/* columns rows colors chars-per-pixel */
"16 15 72 1 ",
"  c #864B1F",
". c #8F4F1F",
"X c #92501F",
"o c #9B541F",
"O c #A5581F",
"+ c #A85A1F",
"@ c #B15D1F",
"# c #BC621F",
"$ c #905020",
"% c #995D31",
"& c #A65920",
"* c #A95D23",
"= c #9B6136",
"- c #B36022",
"; c #A66636",
": c #C7671F",
"> c #C9681F",
", c #D26C1F",
"< c #DD711F",
"1 c #E7741F",
"2 c #EA761F",
"3 c #F37A1F",
"4 c #D26C20",
"5 c #DC7020",
"6 c #D87B36",
"7 c #936645",
"8 c #996640",
"9 c #9F6840",
"0 c #A26B42",
"q c #AA6D40",
"w c #B37140",
"e c #BD7540",
"r c #A27C60",
"t c #C47840",
"y c #CB7B40",
"u c #D17E40",
"i c #BF855A",
"p c #D78040",
"a c #DA8546",
"s c #C58556",
"d c #E28540",
"f c #EC8940",
"g c #F58D40",
"h c #EE914B",
"j c #FC9345",
"k c #EF9A5A",
"l c #C48F68",
"z c #DB9B6B",
"x c #D7A076",
"c c #FDA360",
"v c #ECAB7A",
"b c #DCBDA5",
"n c #E3BEA1",
"m c #F6C097",
"M c #F6C49E",
"N c #DFC1AB",
"B c #DFCABA",
"V c #F8CEAF",
"C c #ECCAB1",
"Z c #E2CEBF",
"A c #EBDBCE",
"S c #F7DFCD",
"D c #EFDED1",
"F c #EBE1DA",
"G c #F3E4D8",
"H c #F9E6D8",
"J c #FFEADB",
"K c #ECE5E0",
"L c #FEEDE1",
"P c #FDF7F2",
"I c #FEF9F5",
"U c #FEFCFA",
/* pixels */
"ULJJJJJJJJJJJJLU",
"JcjjjjjjjjjjjjcJ",
"Jg333333333333gH",
"Hf2222hmVMk111fH",
"Hd<<<vUISHL5<<dH",
"Hp,,6IPa,4a,,,pH",
"Gu>>zUC:::::::yG",
"Gy##xUn#######tG",
"Ge@@sUD-@@@@@@eG",
"Gw++*AUNilb&OOwF",
"Fqooo;BIUUZoooqF",
"F0XXXXX%0=$...9F",
"F8            8F",
"Fr777777777777rF",
"UKFFFFFFFFFFFFKU"
};
