/* XPM */
static char *skDynLib[] = {
/* columns rows colors chars-per-pixel */
"16 15 76 1 ",
"  c #5E1F86",
". c #641F8F",
"X c #651F91",
"o c #6B1F9B",
"O c #662191",
"+ c #682494",
"@ c #6B2895",
"# c #711FA5",
"$ c #731FA8",
"% c #771FB0",
"& c #791FB2",
"* c #7F1FBC",
"= c #782AA9",
"- c #7934A4",
"; c #7A22B2",
": c #744593",
"> c #764099",
", c #7A409F",
"< c #7C40A3",
"1 c #801FBE",
"2 c #8140AA",
"3 c #8540B2",
"4 c #8840B5",
"5 c #8C40BD",
"6 c #8960A2",
"7 c #861FC7",
"8 c #871FC9",
"9 c #8D1FD2",
"0 c #931FDD",
"q c #8F24D3",
"w c #991FE7",
"e c #9B1FEA",
"r c #A11FF3",
"t c #9140C4",
"y c #9540CB",
"u c #9B40D4",
"i c #9F40DB",
"p c #A44EDB",
"a c #A651DB",
"s c #A977C9",
"d c #B47AD8",
"f c #B57DD9",
"g c #A340E2",
"h c #A941EC",
"j c #B151EF",
"k c #AD40F3",
"l c #B040F7",
"z c #B545FC",
"x c #BC7AE5",
"c c #BF60FC",
"v c #C07AEC",
"b c #C160FE",
"n c #C57DF3",
"m c #B78BD3",
"M c #BD8EDB",
"N c #C3A6D6",
"B c #C28EE3",
"V c #C68CEB",
"C c #C394E1",
"Z c #CF92F5",
"A c #D197F6",
"S c #D198F6",
"D c #D8BEE9",
"F c #DAC3E8",
"G c #E4DAEB",
"H c #E7D8F1",
"J c #E9D8F4",
"K c #EDD8FB",
"L c #F1DBFF",
"P c #E8E0EC",
"I c #ECE2F2",
"U c #F3E0FF",
"Y c #F5EBFB",
"T c #F7F3F9",
"R c #F9F5FC",
"E c #FDFBFE",
/* pixels */
"EULLLLLLLLLLLLUE",
"LbzzzzzzzzzzzzcL",
"KlrrrrrrrrrrrrkK",
"KheejSAZnhwwwwhK",
"Kg00vERYEEV000gK",
"Ki99xEVqaYEp99uJ",
"Ju88fEB77CEB77yJ",
"Jy11dEM**fEC**tJ",
"H5&&dEM&;DEs%%5H",
"H4$$sEFmFEG=##3G",
"G2oosRRTIN-ooo2G",
"G<XX+@@+OXX...,G",
"G>            >G",
"G6::::::::::::6G",
"RPGGGGGGGGGGGGPR"
};
