/* XPM */
static char *skEnumField[] = {
/* columns rows colors chars-per-pixel */
"16 15 68 1 ",
"  c #1F6286",
". c #1F688F",
"X c #1F6A92",
"o c #1F6F9A",
"O c #1F719D",
"+ c #246D93",
"@ c #1F76A5",
"# c #1F78A8",
"$ c #1F7EB1",
"% c #287CA9",
"& c #457792",
"* c #447894",
"= c #407C9C",
"- c #1F80B3",
"; c #1F85BC",
": c #3C83A9",
"> c #2582B3",
", c #3B8CB7",
"< c #4080A3",
"1 c #4884A4",
"2 c #4085AA",
"3 c #408BB3",
"4 c #4091BD",
"5 c #608BA2",
"6 c #1F8CC6",
"7 c #1F8EC9",
"8 c #1F94D2",
"9 c #1F9BDD",
"0 c #3B96C6",
"q c #3B9CCF",
"w c #2094D2",
"e c #379FD7",
"r c #2BA0DE",
"t c #3BA2D9",
"y c #1FA1E7",
"u c #1FA3EA",
"i c #1FA9F3",
"p c #24A3E8",
"a c #29A7EB",
"s c #3BA8E3",
"d c #4096C4",
"f c #409ACB",
"g c #5F9FC1",
"h c #409FD1",
"j c #40A2D7",
"k c #40A5DB",
"l c #7ABCDF",
"z c #40AAE2",
"x c #40AEEA",
"c c #40B1ED",
"v c #40B6F5",
"b c #45BCFC",
"n c #6FC4F1",
"m c #60C6FD",
"M c #71C5F2",
"N c #8CC5E4",
"B c #CFE3EE",
"V c #DAE5EA",
"C c #DFE8ED",
"Z c #D0E5F1",
"A c #D2EAF6",
"S c #D8EAF3",
"D c #D8EEFA",
"F c #DBF2FF",
"G c #E0E8EC",
"H c #E2F3FD",
"J c #F4F9FC",
"K c #FBFDFE",
/* pixels */
"KHFFFFFFFFFFFFHK",
"FmbbbbbbbbbbbbmF",
"FviiiiiiiiiiiivF",
"DcuuaMMMMnpyyyxD",
"Dz99sKKKKJr999zD",
"Dk88tKAeeew888jD",
"Sh77qKHNNl6666fS",
"Sf;;0KKJJZ;;;;dS",
"S4-$,KB>>>$$$$4S",
"S3##,KSggg%@@@3V",
"V2OO:KKKKK:ooo2V",
"V<XX+11111+...=V",
"V=            *V",
"C5*****&&&&&&&5C",
"KGVVVVVVVVVVVVGK"
};
