/* XPM */
static char *skField[] = {
/* columns rows colors chars-per-pixel */
"16 15 68 1 ",
"  c #1F6286",
". c #1F688F",
"X c #1F6991",
"o c #1F6F9A",
"O c #1F709C",
"+ c #206A92",
"@ c #1F77A6",
"# c #1F78A8",
"$ c #1F7EB1",
"% c #457792",
"& c #447894",
"* c #407C9C",
"= c #1F80B3",
"- c #1F85BC",
"; c #4080A3",
": c #4085AA",
"> c #408BB3",
", c #4091BD",
"< c #5B97B7",
"1 c #608BA2",
"2 c #1F8CC6",
"3 c #1F8EC9",
"4 c #1F94D2",
"5 c #1F9BDD",
"6 c #1FA1E7",
"7 c #1FA3EA",
"8 c #1FA9F3",
"9 c #4096C4",
"0 c #409ACB",
"q c #409FD1",
"w c #40A2D7",
"e c #40A5DB",
"r c #62A0C2",
"t c #62A5C9",
"y c #62AAD1",
"u c #62AFD9",
"i c #40AAE2",
"p c #40AEEA",
"a c #40B1ED",
"s c #4AB5EE",
"d c #40B6F5",
"f c #45BCFC",
"g c #62B4E0",
"h c #62B9E8",
"j c #60C6FD",
"k c #86BDDA",
"l c #98BED1",
"z c #A6C9DC",
"x c #90C6E4",
"c c #99D5F5",
"v c #A6CCE0",
"b c #A6D4EE",
"n c #BBDAEA",
"m c #AFDEF8",
"M c #BAE0F4",
"N c #DAE5EA",
"B c #DFE8ED",
"V c #CAE4F3",
"C c #D8EAF3",
"Z c #D6ECF8",
"A c #D8EEFA",
"S c #DBF2FF",
"D c #E0E8EC",
"F c #E7EFF4",
"G c #E3F0F6",
"H c #E0F4FF",
"J c #EBF5FB",
"K c #FBFDFE",
/* pixels */
"KHSSSSSSSSSSSSHK",
"SjffffffffffffjS",
"Sd888888888888dS",
"Aa77smmmmc6666pA",
"Ai55hKJZZM5555iA",
"Ze44gKb4444444wZ",
"Cq33uKJVVx22220C",
"C0--yKGnnk----9C",
"C,=$tKv$$$$$$$,C",
"C>##rKz@@@@@@@>N",
"N:OO<FlOOOOooo:N",
"N;XX+++XXXX...*N",
"N*            &N",
"B1&&&&&%%%%%%%1B",
"KDNNNNNNNNNNNNDK"
};
