/* XPM */
static char *skForVar[] = {
/* columns rows colors chars-per-pixel */
"16 15 64 1 ",
"  c #1F6286",
". c #1F688F",
"X c #1F6991",
"o c #1F6F9A",
"O c #1F709C",
"+ c #266E94",
"@ c #327599",
"# c #3C7C9E",
"$ c #1F76A5",
"% c #1F78A7",
"& c #1F78A8",
"* c #1F7EB1",
"= c #457792",
"- c #447894",
"; c #407C9C",
": c #1F80B3",
"> c #1F85BC",
", c #4080A3",
"< c #4085AA",
"1 c #408BB3",
"2 c #4091BD",
"3 c #5391B3",
"4 c #5397BC",
"5 c #608BA2",
"6 c #1F8CC6",
"7 c #1F8DC9",
"8 c #1F94D2",
"9 c #1F9BDD",
"0 c #1FA1E7",
"q c #1FA3E9",
"w c #1FA9F3",
"e c #35ACEB",
"r c #4096C4",
"t c #409ACB",
"y c #539DC4",
"u c #409FD1",
"i c #53A2CC",
"p c #40A2D7",
"a c #40A5DB",
"s c #53A7D5",
"d c #53ADDD",
"f c #40AAE2",
"g c #40AEEA",
"h c #40B1ED",
"j c #53B2E5",
"k c #5DBCEF",
"l c #40B6F5",
"z c #45BCFC",
"x c #60C6FD",
"c c #7ECAF3",
"v c #B0CCDC",
"b c #B0CFE0",
"n c #B0D3E5",
"m c #B0D7EC",
"M c #B0D9EF",
"N c #B0DCF3",
"B c #DAE5EA",
"V c #DFE8ED",
"C c #D8EAF3",
"Z c #D8EEFA",
"A c #DBF2FF",
"S c #E0E8EC",
"D c #E0F4FF",
"F c #FBFDFE",
/* pixels */
"FDAAAAAAAAAAAADF",
"AxzzzzzzzzzzzzxA",
"AlwwwwwwwwwwwwlA",
"Zhqqqqeck00000gZ",
"Zf9999jFN99999fZ",
"Za8888dFM88888pZ",
"Cu7777sFm66666tC",
"Ct>>>>iFn>>>>>rC",
"C2:***yFn*****2C",
"C1&&%%4Fb$$$$$1B",
"B<OOOO3FvOOooo<B",
"B,XXXX+#@XX...;B",
"B;            -B",
"V5-----=======5V",
"FSBBBBBBBBBBBBSF"
};
