/* XPM */
static char *skGenericParam[] = {
/* columns rows colors chars-per-pixel */
"16 15 82 1 ",
"  c #1F6286",
". c #1F688F",
"X c #1F6991",
"o c #1F719D",
"O c #216387",
"+ c #2B6A8C",
"@ c #23729D",
"# c #3A7A9C",
"$ c #1F76A5",
"% c #1F78A8",
"& c #1F7EB1",
"* c #2776A0",
"= c #257BAA",
"- c #347CA3",
"; c #457792",
": c #457893",
"> c #4A7F9B",
", c #1F80B3",
"< c #1F86BC",
"1 c #3980A6",
"2 c #3982A9",
"3 c #2682B4",
"4 c #4A819E",
"5 c #4281A3",
"6 c #608BA2",
"7 c #1F8CC6",
"8 c #1F8EC9",
"9 c #1F94D2",
"0 c #1F9BDD",
"q c #2094D2",
"w c #229CDD",
"e c #1FA3E9",
"r c #1FA9F3",
"t c #2EA3E1",
"y c #33AAE9",
"u c #39ADEB",
"i c #25ABF3",
"p c #2AAEF4",
"a c #59AAD6",
"s c #6FADCE",
"d c #70ADCD",
"f c #7AB7D7",
"g c #73B6D9",
"h c #45ABE2",
"j c #40B0ED",
"k c #4EBCF6",
"l c #45BCFC",
"z c #78C2E9",
"x c #60C6FD",
"c c #68C6F8",
"v c #81AEC6",
"b c #85B2CB",
"n c #82B9D6",
"m c #A9CCDE",
"M c #80C3E7",
"N c #87C8EB",
"B c #95CAE6",
"V c #A4CEE4",
"C c #A9D3EA",
"Z c #BDD4E0",
"A c #B0D9EF",
"S c #AFDFF8",
"D c #B2DCF2",
"F c #BEE5F9",
"G c #C2DAE6",
"H c #C7DBE6",
"J c #C3DDEC",
"K c #CDE2ED",
"L c #D0E1EA",
"P c #DBE5EA",
"I c #DFE8ED",
"U c #C2E2F4",
"Y c #CAE5F3",
"T c #CBE8F8",
"R c #DBEAF2",
"E c #DCF2FF",
"W c #E0E8EC",
"Q c #E0F4FE",
"! c #EAF6FD",
"~ c #EDF8FE",
"^ c #F6FAFC",
"/ c #FDFEFE",
/* pixels */
"/QEEEEEEEEEEEEQ/",
"ExllllllllllllxE",
"QckirrripirrikcQ",
"//!jeuS~^~Fyu!^/",
"/Tw0tE/DzNYh0wU/",
"/Y99M/Aq99qq99U/",
"/Y88C/g7aBBa77J/",
"/Y<<V/g<fR/n<<J/",
"/K,&s/J3&d/n&&G/",
"/H%%=G/RmK/b$$G/",
"/L2@o*vGLZb-@1H/",
"/^^5XXXXXXX.#^^/",
"P4+O        O+>P",
"I6::::::;;;;;;6I",
"^WPPPPPPPPPPPPW^"
};
