/* XPM */
static char *skIterator[] = {
/* columns rows colors chars-per-pixel */
"16 15 80 1 ",
"  c #1F661F",
". c #1F6C1F",
"X c #1F741F",
"o c #1F7B1F",
"O c #226722",
"+ c #206E20",
"@ c #2C6D2C",
"# c #267126",
"$ c #307030",
"% c #3C793C",
"& c #447A44",
"* c #1F831F",
"= c #1F8A1F",
"- c #1F921F",
"; c #1F991F",
": c #1FA21F",
"> c #1FAB1F",
", c #1FB01F",
"< c #208320",
"1 c #208B20",
"2 c #2D842D",
"3 c #2A8F2A",
"4 c #219321",
"5 c #318C31",
"6 c #398339",
"7 c #389D38",
"8 c #21AC21",
"9 c #29A429",
"0 c #22B122",
"q c #32AF32",
"w c #3AA63A",
"e c #408440",
"r c #408C40",
"t c #409340",
"y c #409C40",
"u c #5B8D5B",
"i c #529952",
"p c #5D9B5D",
"a c #40A440",
"s c #40AB40",
"d c #41B341",
"f c #40BB40",
"g c #4BBA4B",
"h c #608D60",
"j c #64A264",
"k c #63AC63",
"l c #63B463",
"z c #63BA63",
"x c #68BA68",
"c c #7DB27D",
"v c #45C245",
"b c #60CB60",
"n c #76CB76",
"m c #7FC97F",
"M c #91BB91",
"N c #98BF98",
"B c #81CE81",
"V c #94CF94",
"C c #9DCF9D",
"Z c #A5CCA5",
"A c #A9C6A9",
"S c #A8CDA8",
"D c #A5D4A5",
"F c #A5DAA5",
"G c #AADDAA",
"H c #B3D7B3",
"J c #BDD4BD",
"K c #AFE1AF",
"L c #C9E5C9",
"P c #CBEBCB",
"I c #D2E4D2",
"U c #D6EAD6",
"Y c #DAE5DA",
"T c #DAEBDA",
"R c #DBF3DB",
"E c #E1EAE1",
"W c #E4F4E4",
"Q c #E8F5E8",
"! c #F7FAF7",
"~ c #FBFDFB",
/* pixels */
"~WRRRRRRRRRRRRW~",
"RbvvvvvvvvvvvvbR",
"Rf,,,,,00,008>fR",
"RdnKg>>GP8qWB>dR",
"TdF~z:d~m::GQ9sT",
"TsD~z;V~w;;z~xaT",
"TaD~l-LQ4--7~CaT",
"TyD~k1TU===3!HyT",
"UtZ~k*IT<**5~StU",
"UtZ~joS!2ooi~crU",
"YrNQpXp~jXXM!6eY",
"Ye+++.+IJ+#EA.eY",
"Y&     %uO@u$ &Y",
"Yh&&&&&&&&&&&&hY",
"!EYYYYYYYYYYYYE!"
};
