/* XPM */
static char *skLabel[] = {
/* columns rows colors chars-per-pixel */
"16 15 64 1 ",
"  c #5E1F86",
". c #641F8F",
"X c #651F92",
"o c #6B1F9B",
"O c #682593",
"+ c #6B2895",
"@ c #711FA5",
"# c #731FA8",
"$ c #771FB0",
"% c #791FB1",
"& c #7F1FBB",
"* c #744593",
"= c #764099",
"- c #7A409F",
"; c #7C40A3",
": c #801FBE",
"> c #8140AA",
", c #8540B2",
"< c #8840B5",
"1 c #8C40BD",
"2 c #8960A2",
"3 c #851FC6",
"4 c #871FC9",
"5 c #8D1FD2",
"6 c #931FDD",
"7 c #991FE7",
"8 c #9B1FE9",
"9 c #A11FF3",
"0 c #9140C4",
"q c #9540CB",
"w c #9B40D4",
"e c #9F40DB",
"r c #A067C3",
"t c #A86ECD",
"y c #AC6ED4",
"u c #B16EDB",
"i c #A340E2",
"p c #A940EC",
"a c #AE4AED",
"s c #AD40F3",
"d c #B040F7",
"f c #B545FC",
"g c #B76EE6",
"h c #B962F0",
"j c #BF60FC",
"k c #C160FE",
"l c #B386D0",
"z c #BA96D1",
"x c #C09AD7",
"c c #C39ADC",
"v c #CFB6DE",
"b c #C99AE6",
"n c #CF9AF0",
"m c #D198F6",
"M c #CEB0E1",
"N c #E4DAEB",
"B c #E7D8F1",
"V c #E9D8F4",
"C c #EDD8FB",
"Z c #F1DBFF",
"A c #E8E0EC",
"S c #F3E0FF",
"D c #F9F6FB",
"F c #FDFBFE",
/* pixels */
"FSZZZZZZZZZZZZSF",
"ZkffffffffffffjZ",
"Cd999999999999sC",
"Cp888hma877777pC",
"Ci666nFg666666iC",
"Ce555bFg555555wV",
"Vw444bFu333333qV",
"Vq:::bFy&&&&&&0V",
"B1%%%cFt%%%$$$1B",
"B<###xFMllr@@@,N",
"N>ooozDDDDvooo>N",
"N;XXXO++++O...-N",
"N=            =N",
"N2************2N",
"DANNNNNNNNNNNNAD"
};
