/* XPM */
static char *skLet[] = {
/* columns rows colors chars-per-pixel */
"16 15 64 1 ",
"  c #1F6286",
". c #1F688F",
"X c #1F6991",
"o c #1F6F9A",
"O c #1F719D",
"+ c #216A92",
"@ c #22729C",
"# c #1F76A5",
"$ c #1F78A8",
"% c #1F7EB1",
"& c #2178A7",
"* c #457792",
"= c #447894",
"- c #407C9C",
"; c #1F80B3",
": c #1F85BC",
"> c #4080A3",
", c #4085AA",
"< c #408BB3",
"1 c #4091BD",
"2 c #5B97B7",
"3 c #608BA2",
"4 c #1F8CC7",
"5 c #1F8EC9",
"6 c #1F94D2",
"7 c #1F9BDD",
"8 c #1FA1E7",
"9 c #1FA2E9",
"0 c #1FA9F3",
"q c #4096C4",
"w c #409ACB",
"e c #409FD1",
"r c #40A2D7",
"t c #40A5DB",
"y c #62A0C2",
"u c #62A5C9",
"i c #62AAD1",
"p c #62AFD9",
"a c #40AAE2",
"s c #40AEEA",
"d c #40B1ED",
"f c #4AB5EE",
"g c #40B6F5",
"h c #45BCFC",
"j c #62B4E0",
"k c #62B9E8",
"l c #60C6FD",
"z c #76C7F2",
"x c #95C0D6",
"c c #9DC4D9",
"v c #A6CDE2",
"b c #A6D3EB",
"n c #A6D7F2",
"m c #AFDFF8",
"M c #DAE5EA",
"N c #DDE8ED",
"B c #D7E7F0",
"V c #D8EAF3",
"C c #D8EEFA",
"Z c #DBF2FF",
"A c #E0E8EC",
"S c #E7EFF4",
"D c #E0F4FF",
"F c #FBFDFE",
/* pixels */
"FDZZZZZZZZZZZZDF",
"ZlhhhhhhhhhhhhlZ",
"Zg000000000000gZ",
"Cd99fmz9988888sC",
"Ca77kFn7777777aC",
"Ct66jFb6666666rC",
"Ve55pFb4444444wV",
"Vw::iFv:::::::qV",
"V1;%uFv%%%%%%%1B",
"B<$$yFBccx&###<N",
"M,OO2SSSSN@ooo,M",
"M>XX++++++X...-M",
"M-            =M",
"N3=====*******3N",
"FAMMMMMMMMMMMMAF"
};
