/* XPM */
static char *skMacro[] = {
/* columns rows colors chars-per-pixel */
"16 15 73 1 ",
"  c #864B1F",
". c #8F4F1F",
"X c #904F1F",
"o c #92501F",
"O c #9B541F",
"+ c #A6591F",
"@ c #A85A1F",
"# c #B15D1F",
"$ c #BC621F",
"% c #925121",
"& c #97592C",
"* c #995E32",
"= c #A8693B",
"- c #B96D35",
"; c #B26E3B",
": c #BB713A",
"> c #C6661F",
", c #C9681F",
"< c #D26C1F",
"1 c #DD711F",
"2 c #E6741F",
"3 c #E9751F",
"4 c #F37A1F",
"5 c #C5763B",
"6 c #CE7A3B",
"7 c #D77F3E",
"8 c #D97D38",
"9 c #EA7D2D",
"0 c #936645",
"q c #996640",
"w c #9F6840",
"e c #A36A40",
"r c #AA6D40",
"t c #B37140",
"y c #BD7540",
"u c #A27C60",
"i c #C47840",
"p c #CB7B40",
"a c #D17E40",
"s c #D9813F",
"d c #E1823B",
"f c #D78040",
"g c #DA8342",
"h c #E28540",
"j c #EC8940",
"k c #ED8F4A",
"l c #F58D40",
"z c #EE924D",
"x c #FC9345",
"c c #FDA360",
"v c #CEA485",
"b c #DCAD8A",
"n c #DDB190",
"m c #F4B78A",
"M c #F5B88A",
"N c #E7BB9A",
"B c #DDC5B3",
"V c #E3C8B4",
"C c #EACDB7",
"Z c #E4CCBA",
"A c #EED1BC",
"S c #F5D4BB",
"D c #F3D6C1",
"F c #EBE1DA",
"G c #F3E4D8",
"H c #FAE6D8",
"J c #FFEADB",
"K c #ECE5E0",
"L c #FCEDE2",
"P c #FAF4EE",
"I c #FDF7F3",
"U c #FBF9F6",
"Y c #FEFDFB",
/* pixels */
"YLJJJJJJJJJJJJLY",
"JcxxxxxxxxxxxxcJ",
"Jl444444444444lH",
"Hj39MMz33kmm92jH",
"Hh1dYYD11SYYd1hH",
"Hg<8YIYgsYIY7<fH",
"Ga,6YDLNNLAY6>pG",
"Gp$5YCbPPnCY5$iG",
"Gy#:YC-UU:VY:#yG",
"Gt@;YZ+vv+VY;+tF",
"FrO=YZOOOOBY=OrF",
"Feo%*&oXXX&*%.wF",
"Fq            qF",
"Fu000000000000uF",
"UKFFFFFFFFFFFFKU"
};
