/* XPM */
static char *skMethod[] = {
/* columns rows colors chars-per-pixel */
"16 15 70 1 ",
"  c #1F651F",
". c #1F6D1F",
"X c #1F741F",
"o c #1F7C1F",
"O c #226E22",
"+ c #237323",
"@ c #227D22",
"# c #457A45",
"$ c #1FA11F",
"% c #1FAC1F",
"& c #1FB01F",
"* c #238523",
"= c #238C23",
"- c #288028",
"; c #239323",
": c #229A22",
"> c #399E39",
", c #25A325",
"< c #21AC21",
"1 c #2EAD2E",
"2 c #30A230",
"3 c #418441",
"4 c #448D44",
"5 c #4D894D",
"6 c #429542",
"7 c #409A40",
"8 c #4B9C4B",
"9 c #5A8C5A",
"0 c #5C9F5C",
"q c #40A440",
"w c #4EA24E",
"e c #44B744",
"r c #40BC40",
"t c #5EAB5E",
"y c #5AB85A",
"u c #608D60",
"i c #6B986B",
"p c #6EBE6E",
"a c #7BAE7B",
"s c #7FB47F",
"d c #7FBB7F",
"f c #45C245",
"g c #66C566",
"h c #60CB60",
"j c #70C870",
"k c #7FC47F",
"l c #7FCA7F",
"z c #8BB58B",
"x c #82C382",
"c c #89C189",
"v c #8ACD8A",
"b c #92C392",
"n c #9CCE9C",
"m c #9DDA9D",
"M c #AFCDAF",
"N c #A5D2A5",
"B c #A4DCA4",
"V c #B4D3B4",
"C c #BADDBA",
"Z c #CCE4CC",
"A c #DAE5DA",
"S c #DAEBDA",
"D c #DBF3DB",
"F c #E0EAE0",
"G c #E2F5E2",
"H c #EEF6EE",
"J c #EFF8EF",
"K c #F0F6F0",
"L c #F1F9F1",
"P c #FBFDFB",
/* pixels */
"PGDDDDDDDDDDDDGP",
"DhffffffffffffhD",
"Dr&&&&&&&%%%%<rD",
"DgBBe%%jBm<%1DBD",
"SlPPB$,GPJ,$vPyS",
"SkPHL2pPLJ::SZqS",
"SkPNLxZCSJ;>PnqS",
"SdPbNHPtSJ=wPc7S",
"SdPb8PS*SJ*6Pb6S",
"SsPb@s0oSH@-KV4A",
"AaHzXXXXZF+XMH4A",
"A3+O....OO..5PzA",
"A#           9iA",
"Au############uA",
"PFAAAAAAAAAAAAFP"
};
