/* XPM */
static char *skModule[] = {
/* columns rows colors chars-per-pixel */
"16 15 77 1 ",
"  c #5E1F86",
". c #631F8F",
"X c #651F91",
"o c #6B1F9B",
"O c #652091",
"+ c #692593",
"@ c #6B2895",
"# c #721FA6",
"$ c #731FA8",
"% c #771FB0",
"& c #7C1FB7",
"* c #782CA8",
"= c #7F2AB5",
"- c #744593",
"; c #764099",
": c #7A409F",
"> c #7C40A3",
", c #801FBE",
"< c #812CB7",
"1 c #8140AA",
"2 c #884BAE",
"3 c #8840B5",
"4 c #8A46B4",
"5 c #8C40BD",
"6 c #8960A2",
"7 c #861FC7",
"8 c #8D1FD2",
"9 c #931FDD",
"0 c #8B2CC7",
"q c #9527DA",
"w c #9A38D7",
"e c #991FE6",
"r c #9A1FE9",
"t c #A11FF3",
"y c #9C29E6",
"u c #A438EA",
"i c #9448C4",
"p c #9540CB",
"a c #9B40D4",
"s c #9E46D6",
"d c #A34DDA",
"f c #A956DE",
"g c #A46EC5",
"h c #B074D6",
"j c #A340E2",
"k c #A940EC",
"l c #AB4AE8",
"z c #AD40F3",
"x c #B040F7",
"c c #B545FC",
"v c #B65DF0",
"b c #BF60FC",
"n c #C160FE",
"m c #B083CD",
"M c #C5A3DA",
"N c #C28EE3",
"B c #C59AE0",
"V c #D095F6",
"C c #D198F6",
"Z c #CBA5E4",
"A c #D5B1EC",
"S c #DAB2F4",
"D c #DBC8E8",
"F c #E0CAEE",
"G c #E4DAEB",
"H c #E4CCF3",
"J c #E7D8F1",
"K c #E9D8F4",
"L c #EDD8FB",
"P c #F1DBFF",
"I c #E8E0EC",
"U c #F3EAF7",
"Y c #F3E0FF",
"T c #F4ECFA",
"R c #F7F1FA",
"E c #F9F5FC",
"W c #FDFAFE",
/* pixels */
"WYPPPPPPPPPPPPYW",
"PnccccccccccccbP",
"LxttttttttttttzL",
"LkryVCvrrlCCuekL",
"Lj9yWWLq9SWWl9jL",
"La8qWRWfwERWd8aK",
"Ka70WHHANTAWs7pK",
"Kp,0WFhETBZWi&pK",
"J5&<WF=UW5MWi%5J",
"J3$*WD#gm#MW4#3G",
"G1o*RDooooME2o1G",
"G>XO@+XXXX+@O.:G",
"G;            ;G",
"G6------------6G",
"WIGGGGGGGGGGGGIW"
};
