/* XPM */
static char *skParam[] = {
/* columns rows colors chars-per-pixel */
"16 15 79 1 ",
"  c #1F6286",
". c #1F688F",
"X c #1F6991",
"o c #1F6F9A",
"O c #1F709B",
"+ c #28688A",
"@ c #326E8E",
"# c #23729D",
"$ c #337497",
"% c #1F77A6",
"& c #1F78A8",
"* c #1F7EB1",
"= c #247AA9",
"- c #457792",
"; c #447894",
": c #447D9B",
"> c #1F85BC",
", c #2381B3",
"< c #2288BE",
"1 c #388CBA",
"2 c #3B90BD",
"3 c #608BA2",
"4 c #6A9AB4",
"5 c #1F8DC7",
"6 c #1F94D2",
"7 c #1F9CDF",
"8 c #2F8FC3",
"9 c #228FC9",
"0 c #2E93CA",
"q c #2296D3",
"w c #249DDD",
"e c #3A9BD0",
"r c #1FA1E7",
"t c #1FA9F3",
"y c #28A7EA",
"u c #20AAF3",
"i c #28ADF5",
"p c #31AFF3",
"a c #3DB4F4",
"s c #41A3D8",
"d c #64A2C3",
"f c #6CAED2",
"g c #69B3DB",
"h c #78B5D6",
"j c #44B1EC",
"k c #40B6F5",
"l c #47BAF7",
"z c #45BCFC",
"x c #60B8E7",
"c c #7DBDE0",
"v c #60C6FD",
"b c #75C5F0",
"n c #A5C5D7",
"m c #A8C8D9",
"M c #B1CDDC",
"N c #B7D1DE",
"B c #A0D1EB",
"V c #A3D5F1",
"C c #ADDEF8",
"Z c #B6DDF3",
"A c #B0DFF8",
"S c #CDDFE8",
"D c #DAE5EA",
"F c #DFE8ED",
"G c #C9E9FA",
"H c #DDEAF0",
"J c #D3ECFA",
"K c #D8EEFA",
"L c #DBF2FE",
"P c #E0E8EC",
"I c #E1ECF2",
"U c #E6F1F7",
"Y c #EDF4F7",
"T c #E1F3FC",
"R c #ECF5FA",
"E c #EEF8FD",
"W c #F2F7FA",
"Q c #F4F9FC",
"! c #FBFDFE",
/* pixels */
"!TLLLLLLLLLLLLT!",
"LvzzzzzzzzzzzzvL",
"LlkittuuttttpakL",
"KCEyyGKKJAjrx!bK",
"LQV7wR!VZ!TwwLJK",
"Q!x6qRQqqK!s6B!T",
"!!e59RQgcQQ05h!E",
"!!8><R!!!Uf>>f!Q",
"!!2*,YQ21,***h!R",
"W!d&=YW=%%%%%n!I",
"HWmO#MN#OOOo#ISD",
"DnY$XXXXXXX.4Q4D",
"D:$+        +@;D",
"F3;;;;;-------3F",
"!PDDDDDDDDDDDDP!"
};
