/* XPM */
static char *skPackage[] = {
/* columns rows colors chars-per-pixel */
"16 15 69 1 ",
"  c #5E1F86",
". c #641F8F",
"X c #651F91",
"o c #6B1F9B",
"O c #662192",
"+ c #711FA6",
"@ c #731FA8",
"# c #771FB0",
"$ c #791FB2",
"% c #7E1FBB",
"& c #7A22B2",
"* c #744593",
"= c #764099",
"- c #7A409F",
"; c #7C40A3",
": c #801FBE",
"> c #8225BD",
", c #8242AB",
"< c #8540B2",
"1 c #8840B5",
"2 c #8C48B7",
"3 c #8C40BD",
"4 c #8960A2",
"5 c #851FC6",
"6 c #871FC9",
"7 c #8D1FD3",
"8 c #941FDD",
"9 c #963DCF",
"0 c #8D21D2",
"q c #9C31DF",
"w c #991FE7",
"e c #9B1FEA",
"r c #A11FF3",
"t c #A538EA",
"y c #9246C2",
"u c #9540CB",
"i c #9B40D4",
"p c #9F40DB",
"a c #A248DB",
"s c #A559D6",
"d c #A85FD6",
"f c #A367C9",
"g c #A340E2",
"h c #A940EC",
"j c #AD40F3",
"k c #B040F7",
"l c #B545FC",
"z c #B26AE1",
"x c #BF60FC",
"c c #C160FE",
"v c #B584D3",
"b c #CEB5DE",
"n c #C985F4",
"m c #D7A5F7",
"M c #DBBAF1",
"N c #D8C0E6",
"B c #DAC0EB",
"V c #DEC0F1",
"C c #E4DAEB",
"Z c #E1C0F6",
"A c #E6D1F4",
"S c #E7D8F1",
"D c #E9D8F4",
"F c #EDD9FA",
"G c #F1DBFF",
"H c #E8E0EC",
"J c #F4EEF7",
"K c #F3E2FE",
"L c #FDFCFE",
/* pixels */
"LKGGGGGGGGGGGGKL",
"GcllllllllllllxG",
"FkrrrrrrrrrrrrjF",
"FheeenmmmntwwwhF",
"Fg888ZLFFLKq88gF",
"Fp777VLa0MLz77iD",
"Di666VLs9ALd55uD",
"Du:::BLLLLB>%%yD",
"S3$$$BLvfy&###3S",
"S1@@@NL2++++++<C",
"C,ooobJ,oooooo,C",
"C;XXXOOOXXX...-C",
"C=            =C",
"C4************4C",
"LHCCCCCCCCCCCCHL"
};
