/* XPM */
static char *skProc[] = {
/* columns rows colors chars-per-pixel */
"16 15 75 1 ",
"  c #1F651F",
". c #1F6C1F",
"X c #1F741F",
"o c #1F7B1F",
"O c #226622",
"+ c #267326",
"@ c #267E26",
"# c #2A732A",
"$ c #307830",
"% c #397E39",
"& c #447A44",
"* c #1F821F",
"= c #1F891F",
"- c #1F911F",
"; c #1F991F",
": c #1FA01F",
"> c #1FAC1F",
", c #1FB01F",
"< c #208320",
"1 c #208B20",
"2 c #229322",
"3 c #259C25",
"4 c #22A822",
"5 c #39AB39",
"6 c #3BB43B",
"7 c #408440",
"8 c #408C40",
"9 c #409340",
"0 c #409C40",
"q c #4A9A4A",
"w c #5A8D5A",
"e c #519351",
"r c #5D9B5D",
"t c #40A440",
"y c #40AA40",
"u c #40B440",
"i c #40BB40",
"p c #5DA45D",
"a c #5DAC5D",
"s c #5DB45D",
"d c #5DBC5D",
"f c #608D60",
"g c #65B565",
"h c #67BF67",
"j c #6FB36F",
"k c #6DBC6D",
"l c #75A975",
"z c #45C245",
"x c #60CB60",
"c c #77CC77",
"v c #81A781",
"b c #82B982",
"n c #8CBF8C",
"m c #81CF81",
"M c #8BCC8B",
"N c #81D081",
"B c #88D188",
"V c #A4C4A4",
"C c #ABCCAB",
"Z c #ACD7AC",
"A c #ADDAAD",
"S c #B9D6B9",
"D c #AEE0AE",
"F c #C6E4C6",
"G c #C9E5C9",
"H c #D3E7D3",
"J c #D4E8D4",
"K c #DAE5DA",
"L c #D9EBD9",
"P c #DBF3DB",
"I c #E2ECE2",
"U c #E3F5E3",
"Y c #ECF5EC",
"T c #F5FAF5",
"R c #FBFDFB",
/* pixels */
"RUPPPPPPPPPPPPUR",
"PxzzzzzzzzzzzzxP",
"Pi,,,,,,,>>>>>iP",
"Pu6NNmcu>>>BD4uP",
"LudRRTRTh:5TM:yL",
"LysRA3kRF;MRy;yL",
"LtsRZ2gRG-FY2-tL",
"L0aRTYRRj1IH==0L",
"L9pRHnbq*<LJ**9L",
"L9pRCoooooSY@o8L",
"K8rRCXXXXXlReX7K",
"K7+%$.....#IV.7K",
"K&         wvO&K",
"Kf&&&&&&&&&&&&fK",
"RIKKKKKKKKKKKKIR"
};
