/* XPM */
static char *skResult[] = {
/* columns rows colors chars-per-pixel */
"16 15 74 1 ",
"  c #1F6286",
". c #1F688F",
"X c #1F6991",
"o c #1F6F9A",
"O c #1F719D",
"+ c #206A91",
"@ c #23729D",
"# c #1F76A5",
"$ c #1F78A8",
"% c #1F7EB1",
"& c #2077A6",
"* c #457792",
"= c #447894",
"- c #407C9C",
"; c #1F80B3",
": c #1F85BC",
"> c #3D8FBB",
", c #4080A3",
"< c #4185AA",
"1 c #408BB3",
"2 c #4091BD",
"3 c #5B97B7",
"4 c #608BA2",
"5 c #1F8CC6",
"6 c #1F8EC9",
"7 c #1F94D2",
"8 c #1F9BDD",
"9 c #1FA1E7",
"0 c #1FA3EA",
"q c #1FA9F3",
"w c #4096C4",
"e c #409ACB",
"r c #509AC2",
"t c #409FD1",
"y c #40A2D7",
"u c #44A3D6",
"i c #64A1C2",
"p c #62A5C9",
"a c #62ADD5",
"s c #65B1DA",
"d c #40AAE2",
"f c #40AEEA",
"g c #40B1ED",
"h c #4AB5EE",
"j c #59B8EA",
"k c #40B6F5",
"l c #45BCFC",
"z c #62B7E4",
"x c #7EC1E5",
"c c #60C6FD",
"v c #99BED1",
"b c #95C6DF",
"n c #A6C9DC",
"m c #93CBE9",
"M c #ACCFE2",
"N c #A6D4EE",
"B c #BCD6E5",
"V c #A0D8F7",
"C c #AEDEF8",
"Z c #C9DCE6",
"A c #C0DFF0",
"S c #DAE5EA",
"D c #DFE8ED",
"F c #CBE6F5",
"G c #D8EAF3",
"H c #D8EEFA",
"J c #DBF2FF",
"K c #E0E8EC",
"L c #E4EEF3",
"P c #E7F0F4",
"I c #E0F4FF",
"U c #E8F5FB",
"Y c #F5FAFD",
"T c #FBFDFE",
/* pixels */
"TIJJJJJJJJJJJJIT",
"JcllllllllllllcJ",
"JkqqqqqqqqqqqqkJ",
"Hg00hCCCVj9999fH",
"Hd88zTUFYTj888dH",
"Hy77zTN7mTx777yH",
"Gt66sTAsFYu555eG",
"Ge::aTTTTb::::wG",
"G2;%pTM>GTr%%%2G",
"G1$$iTn#iTB&##1S",
"S<OO3PvO@ZL<oo<S",
"S,XX+++XX+++..-S",
"S-            =S",
"D4=====*******4D",
"YKSSSSSSSSSSSSKY"
};
