/* XPM */
static char *skStub[] = {
/* columns rows colors chars-per-pixel */
"16 15 74 1 ",
"  c #5E1F86",
". c #641F8F",
"X c #651F91",
"o c #6B1F9B",
"O c #672392",
"+ c #713299",
"@ c #711FA5",
"# c #731FA8",
"$ c #771FB0",
"% c #791FB2",
"& c #7E1FBB",
"* c #7320A8",
"= c #7A21B2",
"- c #744593",
"; c #764099",
": c #7A409F",
"> c #7C40A3",
", c #801FBE",
"< c #8140AA",
"1 c #8540B2",
"2 c #8840B5",
"3 c #8C40BD",
"4 c #9148BF",
"5 c #8B50B0",
"6 c #8960A2",
"7 c #851FC6",
"8 c #871FC9",
"9 c #8D1FD2",
"0 c #931FDD",
"q c #8824C8",
"w c #8C34C3",
"e c #8F22D3",
"r c #932DD4",
"t c #991FE7",
"y c #9B1FEA",
"u c #A11FF3",
"i c #A12DEB",
"p c #9140C4",
"a c #9540CB",
"s c #9B40D4",
"d c #9F40DB",
"f c #A26AC5",
"g c #B16DDC",
"h c #A340E2",
"j c #AA42EC",
"k c #AD40F3",
"l c #B040F7",
"z c #B545FC",
"x c #BF60FC",
"c c #C17EEB",
"v c #C160FE",
"b c #B386D0",
"n c #BC92D6",
"m c #C4A6D7",
"M c #CF91F5",
"N c #D49EF6",
"B c #CBA4E3",
"V c #D3ACEC",
"C c #DCB7F4",
"Z c #E2BDF9",
"A c #DCC8E9",
"S c #DEC2F0",
"D c #E4DAEB",
"F c #E4C7F6",
"G c #E7D8F1",
"H c #EAD9F4",
"J c #EDD9FA",
"K c #F1DBFF",
"L c #E8E0EC",
"P c #EFE5F6",
"I c #F2E1FD",
"U c #F3EAF8",
"Y c #F9F5FB",
"T c #FCFAFD",
/* pixels */
"TIKKKKKKKKKKKKIT",
"KvzzzzzzzzzzzzxK",
"JluuuuuuuuuuuukJ",
"JjyyyiMZZNjtttjJ",
"Jh000CTFCIc000hJ",
"Jd99eUJe9er999sH",
"Hs888STJVgq777aH",
"Ha,,,wBHTTB&&&pH",
"G3%%%=%=4YP=$$3G",
"G2##*AnfbTA@@@1D",
"D<ooomUTTD5ooo<D",
"D>XXXXO++OX...:D",
"D;            ;D",
"D6------------6D",
"TLDDDDDDDDDDDDLT"
};
