/* XPM */
static char *skTemplate[] = {
/* columns rows colors chars-per-pixel */
"16 15 74 1 ",
"  c #874C1F",
". c #914F1F",
"X c #92501F",
"o c #9B541F",
"O c #A6591F",
"+ c #A85A1F",
"@ c #B15D1F",
"# c #BC621F",
"$ c #854B20",
"% c #925222",
"& c #95623C",
"* c #C6661F",
"= c #C8671F",
"- c #C9681F",
"; c #D16B1F",
": c #F47A1F",
"> c #D36C20",
", c #DC7020",
"< c #E77723",
"1 c #F27B21",
"2 c #936645",
"3 c #996640",
"4 c #9D704E",
"5 c #A76C40",
"6 c #AF7449",
"7 c #B77646",
"8 c #BF7640",
"9 c #A47D60",
"0 c #C87A40",
"q c #C17E4C",
"w c #D17E40",
"e c #E0843F",
"r c #BA835B",
"t c #AA8265",
"y c #BA967C",
"u c #CA824C",
"i c #D98648",
"p c #CA8A5B",
"a c #D68F5B",
"s c #DE935B",
"d c #E28C4C",
"f c #F58E41",
"g c #FC9345",
"h c #C89D7C",
"j c #D2A17C",
"k c #DBA57C",
"l c #FDA360",
"z c #E5A97C",
"x c #EBAC7D",
"c c #F2AB76",
"v c #CCAF99",
"b c #D8B79F",
"n c #E4BC9F",
"m c #EBBF9F",
"M c #F0C19D",
"N c #DDC5B2",
"B c #F7C8A6",
"V c #F8C9A6",
"C c #E5CFBD",
"Z c #F3CEB3",
"A c #ECD1BD",
"S c #F6D2B8",
"D c #E5D6CA",
"F c #EAE1DB",
"G c #F3E4D8",
"H c #F8E6D8",
"J c #FEEADB",
"K c #ECE5E0",
"L c #F0E8E2",
"P c #FDEEE3",
"I c #F7F2ED",
"U c #FDF3EB",
"Y c #FDF8F4",
"T c #FEFEFD",
/* pixels */
"TPJJJJJJJJJJJJPT",
"JlgggggggggggglJ",
"Jf::::::1111:1fJ",
"PSVVVVVccUUB<JUT",
"PPJYTPJMxTxe,dZT",
"Hi>STi>>zTs;;;mT",
"Hw-ATi==kTa***nT",
"G0#ATu##kTp###nT",
"G8@ATq@@jTp@@@bT",
"G7+CT7+OhTrOOObT",
"F5oNI6oohTrooobT",
"F5X%%%X.yTLv%DIT",
"F3      &tt4$9yL",
"F92222222222229F",
"YKFFFFFFFFFFFFKY"
};
