/* XPM */
static char *skTemp[] = {
/* columns rows colors chars-per-pixel */
"16 15 66 1 ",
"  c #1F6286",
". c #1F688F",
"X c #1F6991",
"o c #1F6F9A",
"O c #1F719C",
"+ c #236C93",
"@ c #286F95",
"# c #20709B",
"$ c #1F76A5",
"% c #1F78A7",
"& c #1F78A8",
"* c #1F7EB1",
"= c #2077A6",
"- c #2B78A1",
"; c #2C7FAC",
": c #207FB1",
"> c #457792",
", c #447894",
"< c #407C9C",
"1 c #1F80B3",
"2 c #1F86BC",
"3 c #2C86B6",
"4 c #2086BC",
"5 c #4080A3",
"6 c #4085AA",
"7 c #408BB3",
"8 c #4091BD",
"9 c #608BA2",
"0 c #1F8CC6",
"q c #1F8DC9",
"w c #1F94D2",
"e c #1F9BDD",
"r c #208DC7",
"t c #2C8DC1",
"y c #2C93CB",
"u c #2195D3",
"i c #2F9BD6",
"p c #1FA1E6",
"a c #1FA3EA",
"s c #1FA9F3",
"d c #4096C4",
"f c #409ACB",
"g c #409FD1",
"h c #40A2D7",
"j c #40A5DB",
"k c #40AAE2",
"l c #40AEEA",
"z c #43B2ED",
"x c #40B6F5",
"c c #45BCFC",
"v c #5BBCF0",
"b c #62B8E6",
"n c #60C6FD",
"m c #84C8ED",
"M c #98D5F6",
"N c #DAE5EA",
"B c #DDE8EE",
"V c #D8EAF3",
"C c #D8EEFA",
"Z c #DBF2FF",
"A c #E0E8EC",
"S c #E1EEF4",
"D c #E1F2FC",
"F c #EAF5FC",
"G c #F1F6F9",
"H c #F9FCFD",
/* pixels */
"HDZZZZZZZZZZZZDH",
"ZnccccccccccccnZ",
"ZxssssssssssssxZ",
"CzaavMMMMMMzpplC",
"CkeemFFHHFFbeekC",
"CjwwuuiHDuuuwwhC",
"VgqqqqyHDr0000fV",
"Vf2222tHS42222dV",
"V81***3HS:****8V",
"V7&&%%;HS=$$$$7B",
"N6OOOO-GB#Oooo6N",
"N5XXXX+@@XX...<N",
"N<            ,N",
"B9,,,,,>>>>>>>9B",
"HANNNNNNNNNNNNAH"
};
