/* XPM */
static char *skType[] = {
/* columns rows colors chars-per-pixel */
"16 15 59 1 ",
"  c #5E1F86",
". c #641F8F",
"X c #651F91",
"o c #6B1F9B",
"O c #662292",
"+ c #711FA6",
"@ c #731FA8",
"# c #771FB0",
"$ c #791FB2",
"% c #7F1FBB",
"& c #744593",
"* c #764099",
"= c #7A409F",
"- c #7C40A3",
"; c #801FBE",
": c #803EAA",
"> c #8140AA",
", c #8640B3",
"< c #8840B5",
"1 c #8C40BD",
"2 c #8960A2",
"3 c #851FC6",
"4 c #871FC9",
"5 c #8D1FD2",
"6 c #931FDD",
"7 c #8D20D3",
"8 c #991FE6",
"9 c #9B1FEA",
"0 c #A11FF3",
"q c #A73CEA",
"w c #9240C6",
"e c #9540CB",
"r c #9A40D3",
"t c #9F41DA",
"y c #A340E2",
"u c #A749E2",
"i c #A940EC",
"p c #AD40F3",
"a c #B040F7",
"s c #B545FC",
"d c #BF60FC",
"f c #C160FE",
"g c #C071F2",
"h c #CC94EF",
"j c #D3BDE1",
"k c #D7A5F7",
"l c #DDC8EB",
"z c #E0C8EF",
"x c #E4DAEB",
"c c #E2C8F3",
"v c #E7D8F1",
"b c #E9D8F4",
"n c #EEDAFA",
"m c #F1DBFF",
"M c #E8E0EC",
"N c #F4EEF7",
"B c #F3E1FD",
"V c #FBF6FE",
"C c #FDFBFE",
/* pixels */
"CBmmmmmmmmmmmmBC",
"mfssssssssssssdm",
"na000000000000pn",
"ni99gkkkkkkq88in",
"ny66hnBCVnnu66yn",
"bt5577tCc77555tb",
"br4444rCc33333eb",
"bw;;;;wCz%%%%%wb",
"v1$$$$1Cl$$###1v",
"v<@@@@<Cl+++++,x",
"x>oooo:Njooooo>x",
"x-XXXXOOOXX...=x",
"x*            *x",
"x2&&&&&&&&&&&&2x",
"VMxxxxxxxxxxxxMV"
};
