/* XPM */
static char *skUnknown[] = {
/* columns rows colors chars-per-pixel */
"16 15 75 1 ",
"  c #5E1F86",
". c #641F8F",
"X c #651F91",
"o c #6B1F9B",
"O c #682593",
"+ c #75379C",
"@ c #711FA5",
"# c #731FA8",
"$ c #771FB0",
"% c #791FB2",
"& c #7F1FBB",
"* c #7A3FA0",
"= c #7B24B3",
"- c #744593",
"; c #764099",
": c #7A409F",
"> c #7C40A3",
", c #801FBE",
"< c #8123BD",
"1 c #8140AA",
"2 c #8540B2",
"3 c #8942B6",
"4 c #8C40BD",
"5 c #8960A2",
"6 c #851FC6",
"7 c #871FC9",
"8 c #8D1FD2",
"9 c #931FDD",
"0 c #8722C8",
"q c #8825C8",
"w c #8E23D3",
"e c #9523DD",
"r c #991FE6",
"t c #9B1FE9",
"y c #A11FF3",
"u c #9B21E8",
"i c #9140C4",
"p c #9540CB",
"a c #9B40D4",
"s c #9F40DB",
"d c #A068C5",
"f c #AB73CF",
"g c #B47AD8",
"h c #B87ADF",
"j c #A340E2",
"k c #A940EC",
"l c #B456EF",
"z c #AD40F3",
"x c #B040F7",
"c c #B545FC",
"v c #BD7AE8",
"b c #BF60FC",
"n c #C160FE",
"m c #AC82C7",
"M c #BF8EDE",
"N c #BC93D5",
"B c #C197DB",
"V c #C58EE9",
"C c #CD8EF5",
"Z c #CE92F5",
"A c #D198F6",
"S c #D6BEE5",
"D c #E1D2EA",
"F c #E4DAEB",
"G c #E7D8F1",
"H c #E9D8F4",
"J c #EDD8FB",
"K c #F1DBFF",
"L c #E8E0EC",
"P c #EDE2F4",
"I c #F3E0FF",
"U c #F5ECFA",
"Y c #F7F1FA",
"T c #F8F2FC",
"R c #FDFBFE",
/* pixels */
"RIKKKKKKKKKKKKIR",
"KnccccccccccccbK",
"JxyyyyyyyyyyyyzJ",
"JkttlAltuCZurrkJ",
"Jj99vRV9eUTe99jJ",
"Js88vRV8wUTw88aH",
"Ha77hRV60UTq66pH",
"Hp,,gRM&<UY<&&iH",
"G4%%fRB%=YU=$$4G",
"G3##3RPdNRS@@@2F",
"F1ooomURRD1ooo1F",
"F>XXXXO*+OX...:F",
"F;            ;F",
"F5------------5F",
"RLFFFFFFFFFFFFLR"
};
