/* XPM */
static char *skVar[] = {
/* columns rows colors chars-per-pixel */
"16 15 73 1 ",
"  c #1F6286",
". c #1F688F",
"X c #1F6A91",
"o c #1F6F9A",
"O c #1F719C",
"+ c #216A91",
"@ c #286F95",
"# c #1F76A5",
"$ c #1F78A8",
"% c #1F7EB1",
"& c #2079A8",
"* c #457792",
"= c #447894",
"- c #407C9C",
"; c #1F80B3",
": c #1F86BC",
"> c #2581B3",
", c #4080A3",
"< c #4085AA",
"1 c #4C8CAF",
"2 c #408BB3",
"3 c #4091BD",
"4 c #608BA2",
"5 c #1F8CC6",
"6 c #1F8EC9",
"7 c #1F94D2",
"8 c #1F9BDD",
"9 c #2791CA",
"0 c #2898D4",
"q c #1FA1E6",
"w c #1FA2E9",
"e c #1FA9F3",
"r c #23A4EA",
"t c #3FAFEB",
"y c #4096C4",
"u c #4896C0",
"i c #409ACB",
"p c #409FD1",
"a c #5FA8CF",
"s c #40A2D7",
"d c #40A5DB",
"f c #53A8D5",
"g c #5BB1DF",
"h c #6AAED3",
"j c #40AAE2",
"k c #40AEEA",
"l c #40B1ED",
"z c #5DB7E7",
"x c #40B6F5",
"c c #45BCFC",
"v c #73C0E9",
"b c #6EC3F0",
"n c #60C6FD",
"m c #81AFC7",
"M c #9CC3D7",
"N c #97C7E0",
"B c #95D0EF",
"V c #8BD0F5",
"C c #95D4F6",
"Z c #A1CCE3",
"A c #ABD7EF",
"S c #B7D8EA",
"D c #ABDAF3",
"F c #DAE5EA",
"G c #D9E6ED",
"H c #D8EAF3",
"J c #D8EEFA",
"K c #DBF2FE",
"L c #E0E8EC",
"P c #E1F3FD",
"I c #EAF3F8",
"U c #F4F9FB",
"Y c #FBFDFE",
/* pixels */
"YPKKKKKKKKKKKKPY",
"KnccccccccccccnK",
"KxeeeeeeeeeeeexK",
"JlwrVCrwwtCbqqkJ",
"Jj88DYz88BYv88jJ",
"Jd77gYA70KU077sJ",
"Hp669PU9fYA555iH",
"Hi:::NYhZYa:::yH",
"H3;%%uYSII>%%%3H",
"H2$$$&GYYM####2G",
"G<OOOOmUU1Oooo<G",
"G,XXXX+@@+X...-G",
"F-            =F",
"F4=====*******4F",
"YLFFFFFFFFFFFFLU"
};
